<svg width="14" height="14" viewBox="0 0 14 14" fill="none" xmlns="http://www.w3.org/2000/svg">
  <path d="M2.11628 6.16998H11.8837C11.9612 6.16998 12 6.20507 12 6.27525V7.06472C12 7.1349 11.9612 7.16998 11.8837 7.16998H2.11628C2.03876 7.16998 2 7.1349 2 7.06472V6.27525C2 6.20507 2.03876 6.16998 2.11628 6.16998Z" fill="white"/>
  <path d="M7.5 1.78626L7.5 11.5537C7.5 11.6312 7.46491 11.67 7.39474 11.67L6.60526 11.67C6.53509 11.67 6.5 11.6312 6.5 11.5537L6.5 1.78626C6.5 1.70874 6.53509 1.66998 6.60526 1.66998L7.39474 1.66998C7.46491 1.66998 7.5 1.70874 7.5 1.78626Z" fill="white"/>
</svg>